inDegrees=yes
name=ik_lifting_orientations
DataType=double
version=3
OpenSimVersion=4.5-2024-01-10-34fd6af
endheader
time	pelvis_tilt	pelvis_list	pelvis_rotation	pelvis_tx	pelvis_ty	pelvis_tz	hip_flexion_r	hip_adduction_r	hip_rotation_r	knee_angle_r	knee_angle_r_beta	ankle_angle_r	subtalar_angle_r	mtp_angle_r	hip_flexion_l	hip_adduction_l	hip_rotation_l	knee_angle_l	knee_angle_l_beta	ankle_angle_l	subtalar_angle_l	mtp_angle_l	lumbar_extension	lumbar_bending	lumbar_rotation	arm_flex_r	arm_add_r	arm_rot_r	elbow_flex_r	pro_sup_r	wrist_flex_r	wrist_dev_r	arm_flex_l	arm_add_l	arm_rot_l	elbow_flex_l	pro_sup_l	wrist_flex_l	wrist_dev_l
2.56	0.1833276289618057	2.014774956085885	-85.49176857659275	0	0.9399999998679526	0	45.0063988135372	-10.09074206420462	0	60.01009019146144	1.047373658259756	-5.019490627912663	0	0	45.0063988135372	-10.09074206420462	0	60.01009019146144	1.047373658259756	-5.019490627912663	0	0	-8.658327383432642	0.360457011071	2.792840464475617	122.0914844812529	49.35257101048443	32.19544012082323	18.96774961895343	1.413051016759655	0	0	0	-11.83223831678059	0	88.61565072489147	1.413051016759655	0	0
2.57	0.1698245572994397	1.8072637936873	-85.45857098393992	0	0.9399999998679526	0	45.00639375739772	-10.09049064895861	0	60.01008404173877	1.047373550926848	-5.01942015120253	0	0	45.00639375739772	-10.09049064895861	0	60.01008404173877	1.047373550926848	-5.01942015120253	0	0	-9.377310407799721	0.419654270743735	2.777555077355907	122.8772090962271	49.41844829560781	32.13406711419628	17.01327576782822	1.412274924379629	0	0	0	-11.83351790039658	0	88.61641095088086	1.412274924379629	0	0
2.58	0.154922578808916	1.554440562226319	-85.51916635457837	0	0.9399999998679526	0	45.00638865482339	-10.09023747056955	0	60.01007783350767	1.047373442572774	-5.019349242290288	0	0	45.00638865482339	-10.09023747056955	0	60.01007783350767	1.047373442572774	-5.019349242290288	0	0	-10.43676845596033	0.4937739585324237	2.731002433830779	123.9318510862688	49.72635727642084	32.13222408546432	15.48986696005166	1.4114914709234	0	0	0	-11.83480987164728	0	88.61717838746981	1.4114914709234	0	0
2.59	0.1445503132967982	1.274415659226342	-85.57915845520773	0	0.9399999998679526	0	45.00638338101778	-10.08997653753835	0	60.01007141200901	1.04737333049648	-5.019276237564469	0	0	45.00638338101778	-10.08997653753835	0	60.01007141200901	1.04737333049648	-5.019276237564469	0	0	-11.52491449426575	0.5472215448476533	2.922875680399356	124.7928527967488	49.86110828561874	32.3674856956244	14.28109789977993	1.410681337459096	0	0	0	-11.83614629987984	0	88.61797195864231	1.410681337459096	0	0
2.6	0.1491812294141588	1.009461197063036	-85.64372563317451	0	0.9399999998679526	0	45.00638179698937	-10.08989838667224	0	60.01006948069539	1.047373296788698	-5.019254391000431	0	0	45.00638179698937	-10.08989838667224	0	60.01006948069539	1.047373296788698	-5.019254391000431	0	0	-12.31554239412547	0.5483453941122612	3.132381223177673	124.8678433100447	49.56503445231387	32.90151697003539	13.36086587815357	1.410437855372847	0	0	0	-11.83654815421306	0	88.61821046301084	1.410437855372847	0	0
2.61	0.1163248171650014	0.6149563454992436	-85.70137175606642	0	0.9399999998679526	0	45.00637991519632	-10.08980583213082	0	60.01006718200993	1.047373256669069	-5.019228538470801	0	0	45.00637991519632	-10.08980583213082	0	60.01006718200993	1.047373256669069	-5.019228538470801	0	0	-13.24141476799603	0.6044800204792515	3.37372214558158	125.0536781141191	49.40931586595652	33.39343894655688	12.76777077625769	1.410148373790616	0	0	0	-11.83702623754219	0	88.61849402647751	1.410148373790616	0	0
2.62	0.09437144700771391	0.3059814492713117	-85.77883782998681	0	0.9399999998679526	0	45.00637463685371	-10.08954632851231	0	60.01006073836059	1.047373144206172	-5.019156082119632	0	0	45.00637463685371	-10.08954632851231	0	60.01006073836059	1.047373144206172	-5.019156082119632	0	0	-14.37126746564183	0.6762078674082774	3.459652512274881	125.8684486157452	49.69344870177476	33.54825870916125	12.40641633240321	1.409336486759379	0	0	0	-11.83836689747301	0	88.61928931541723	1.409336486759379	0	0
2.63	0.06776602037340561	0.01724787094434459	-85.8275413562768	0	0.9399999998679526	0	45.00637330549173	-10.08948277233599	0	60.01005907644375	1.047373115200251	-5.01913844325656	0	0	45.00637330549173	-10.08948277233599	0	60.01005907644375	1.047373115200251	-5.01913844325656	0	0	-15.31683564824362	0.8248898934601553	3.557821992903046	126.3160869082261	49.93320874355102	33.89794936690311	12.41850317874868	1.409129903385524	0	0	0	-11.8387105438409	0	88.6194916755105	1.409129903385524	0	0
2.64	0.04094368134572095	-0.3145779371466918	-85.81885775163627	0	0.9399999998679526	0	45.00637216933986	-10.08942851403055	0	60.01005766028471	1.047373090483613	-5.019123389283521	0	0	45.00637216933986	-10.08942851403055	0	60.01005766028471	1.047373090483613	-5.019123389283521	0	0	-16.16500049929014	0.8929312449506958	3.545841392855573	126.5011621566605	49.94948620853021	34.26160596040468	12.66963490036262	1.408953693371636	0	0	0	-11.83900352737821	0	88.61966428317692	1.408953693371636	0	0
2.65	0.01392606913321178	-0.4994060653691105	-85.88697359912115	0	0.9399999998679526	0	45.00636608580589	-10.08912964124099	0	60.01005024522761	1.047372961066452	-5.019040010230009	0	0	45.00636608580589	-10.08912964124099	0	60.01005024522761	1.047372961066452	-5.019040010230009	0	0	-17.08755819916848	0.9710264021370879	3.712050872471435	127.9367730241335	50.75890429546156	34.05923035211007	11.88162953638596	1.408018261578406	0	0	0	-11.84054763215695	0	88.62058059114131	1.408018261578406	0	0
